G04 #@! TF.GenerationSoftware,KiCad,Pcbnew,8.0.6*
G04 #@! TF.CreationDate,2025-04-04T16:39:19-04:00*
G04 #@! TF.ProjectId,Sea Wall Schematic 3,53656120-5761-46c6-9c20-536368656d61,rev?*
G04 #@! TF.SameCoordinates,Original*
G04 #@! TF.FileFunction,Copper,L1,Top*
G04 #@! TF.FilePolarity,Positive*
%FSLAX46Y46*%
G04 Gerber Fmt 4.6, Leading zero omitted, Abs format (unit mm)*
G04 Created by KiCad (PCBNEW 8.0.6) date 2025-04-04 16:39:19*
%MOMM*%
%LPD*%
G01*
G04 APERTURE LIST*
G04 #@! TA.AperFunction,ComponentPad*
%ADD10R,1.700000X1.700000*%
G04 #@! TD*
G04 #@! TA.AperFunction,ComponentPad*
%ADD11O,1.700000X1.700000*%
G04 #@! TD*
G04 #@! TA.AperFunction,ComponentPad*
%ADD12C,1.600000*%
G04 #@! TD*
G04 #@! TA.AperFunction,ComponentPad*
%ADD13O,1.600000X1.600000*%
G04 #@! TD*
G04 #@! TA.AperFunction,ComponentPad*
%ADD14R,1.300000X1.300000*%
G04 #@! TD*
G04 #@! TA.AperFunction,ComponentPad*
%ADD15C,1.300000*%
G04 #@! TD*
G04 #@! TA.AperFunction,ComponentPad*
%ADD16C,2.050000*%
G04 #@! TD*
G04 #@! TA.AperFunction,ComponentPad*
%ADD17C,2.250000*%
G04 #@! TD*
G04 #@! TA.AperFunction,ComponentPad*
%ADD18C,3.700000*%
G04 #@! TD*
G04 #@! TA.AperFunction,ComponentPad*
%ADD19R,1.600000X1.600000*%
G04 #@! TD*
G04 #@! TA.AperFunction,ComponentPad*
%ADD20C,3.000000*%
G04 #@! TD*
G04 #@! TA.AperFunction,ViaPad*
%ADD21C,0.685800*%
G04 #@! TD*
G04 #@! TA.AperFunction,Conductor*
%ADD22C,0.200000*%
G04 #@! TD*
G04 #@! TA.AperFunction,Conductor*
%ADD23C,0.254000*%
G04 #@! TD*
G04 #@! TA.AperFunction,Conductor*
%ADD24C,0.508000*%
G04 #@! TD*
G04 #@! TA.AperFunction,Conductor*
%ADD25C,0.762000*%
G04 #@! TD*
G04 #@! TA.AperFunction,Conductor*
%ADD26C,0.887400*%
G04 #@! TD*
G04 #@! TA.AperFunction,Conductor*
%ADD27C,0.156500*%
G04 #@! TD*
G04 APERTURE END LIST*
D10*
X98925000Y-107820000D03*
D11*
X98925000Y-110360000D03*
X98925000Y-112900000D03*
X98925000Y-115440000D03*
X98925000Y-117980000D03*
D12*
X163215000Y-76875000D03*
D13*
X170835000Y-76875000D03*
D14*
X175110000Y-77850000D03*
D15*
X176380000Y-76580000D03*
X177650000Y-77850000D03*
D12*
X146090000Y-75875000D03*
D13*
X153710000Y-75875000D03*
D16*
X199410000Y-109765000D03*
D17*
X201950000Y-112305000D03*
X201950000Y-107225000D03*
X196870000Y-112305000D03*
X196870000Y-107225000D03*
D10*
X209850000Y-72135000D03*
D11*
X209850000Y-74675000D03*
X209850000Y-77215000D03*
D16*
X112601000Y-131370000D03*
D17*
X110061000Y-133910000D03*
X115141000Y-133910000D03*
X110061000Y-128830000D03*
X115141000Y-128830000D03*
D10*
X209850000Y-85820000D03*
D11*
X209850000Y-88360000D03*
X209850000Y-90900000D03*
D10*
X162371000Y-129348000D03*
D11*
X162371000Y-126808000D03*
X162371000Y-124268000D03*
D10*
X180151000Y-129348000D03*
D11*
X180151000Y-126808000D03*
X180151000Y-124268000D03*
D18*
X124360000Y-87650000D03*
X124360000Y-74950000D03*
X104040000Y-87650000D03*
X104040000Y-74950000D03*
D11*
X120546000Y-74746000D03*
X118006000Y-74746000D03*
X115466000Y-74746000D03*
X112926000Y-74746000D03*
X110386000Y-74746000D03*
X107846000Y-74746000D03*
X120546000Y-87446000D03*
X118006000Y-87446000D03*
X115466000Y-87446000D03*
X112926000Y-87446000D03*
X110386000Y-87446000D03*
X107846000Y-87446000D03*
D10*
X110193000Y-106681000D03*
D11*
X112733000Y-106681000D03*
X115273000Y-106681000D03*
D10*
X110193000Y-124461000D03*
D11*
X112733000Y-124461000D03*
X115273000Y-124461000D03*
D10*
X126670000Y-106670000D03*
D11*
X129210000Y-106670000D03*
X131750000Y-106670000D03*
D10*
X126670000Y-124450000D03*
D11*
X129210000Y-124450000D03*
X131750000Y-124450000D03*
D12*
X111075000Y-100350000D03*
D13*
X111075000Y-92730000D03*
D12*
X132540000Y-96400000D03*
D13*
X140160000Y-96400000D03*
D19*
X195310000Y-82025000D03*
D13*
X192770000Y-82025000D03*
X190230000Y-82025000D03*
X187690000Y-82025000D03*
X185150000Y-82025000D03*
X182610000Y-82025000D03*
X180070000Y-82025000D03*
X177530000Y-82025000D03*
X174990000Y-82025000D03*
X172450000Y-82025000D03*
X169910000Y-82025000D03*
X167370000Y-82025000D03*
X164830000Y-82025000D03*
X162290000Y-82025000D03*
X162290000Y-89645000D03*
X164830000Y-89645000D03*
X167370000Y-89645000D03*
X169910000Y-89645000D03*
X172450000Y-89645000D03*
X174990000Y-89645000D03*
X177530000Y-89645000D03*
X180070000Y-89645000D03*
X182610000Y-89645000D03*
X185150000Y-89645000D03*
X187690000Y-89645000D03*
X190230000Y-89645000D03*
X192770000Y-89645000D03*
X195310000Y-89645000D03*
D12*
X107025000Y-100350000D03*
D13*
X107025000Y-92730000D03*
D10*
X144425000Y-116025000D03*
D11*
X144425000Y-118565000D03*
X144425000Y-121105000D03*
X144425000Y-123645000D03*
X144425000Y-126185000D03*
X144425000Y-128725000D03*
X144425000Y-131265000D03*
X144425000Y-133805000D03*
D10*
X152425000Y-116025000D03*
D11*
X152425000Y-118565000D03*
X152425000Y-121105000D03*
X152425000Y-123645000D03*
X152425000Y-126185000D03*
X152425000Y-128725000D03*
X152425000Y-131265000D03*
X152425000Y-133805000D03*
D14*
X135405000Y-89585000D03*
D15*
X136675000Y-88315000D03*
X137945000Y-89585000D03*
D10*
X208560000Y-98805000D03*
D11*
X211100000Y-98805000D03*
X208560000Y-101345000D03*
X211100000Y-101345000D03*
X208560000Y-103885000D03*
X211100000Y-103885000D03*
X208560000Y-106425000D03*
X211100000Y-106425000D03*
X208560000Y-108965000D03*
X211100000Y-108965000D03*
X208560000Y-111505000D03*
X211100000Y-111505000D03*
X208560000Y-114045000D03*
X211100000Y-114045000D03*
X208560000Y-116585000D03*
X211100000Y-116585000D03*
D16*
X188610000Y-109990000D03*
D17*
X191150000Y-112530000D03*
X191150000Y-107450000D03*
X186070000Y-112530000D03*
X186070000Y-107450000D03*
D16*
X129176000Y-131495000D03*
D17*
X126636000Y-134035000D03*
X131716000Y-134035000D03*
X126636000Y-128955000D03*
X131716000Y-128955000D03*
D10*
X162610000Y-113996000D03*
D11*
X162610000Y-111456000D03*
X162610000Y-108916000D03*
D10*
X180390000Y-113996000D03*
D11*
X180390000Y-111456000D03*
X180390000Y-108916000D03*
D20*
X200972000Y-72421000D03*
X95382000Y-72421000D03*
X200972000Y-100161000D03*
X95382000Y-100161000D03*
D11*
X158650000Y-70825000D03*
X161190000Y-70825000D03*
X163730000Y-70825000D03*
X166270000Y-70825000D03*
X168810000Y-70825000D03*
X171350000Y-70825000D03*
X173890000Y-70825000D03*
X176430000Y-70825000D03*
X178970000Y-70825000D03*
X181510000Y-70825000D03*
X184050000Y-70825000D03*
X186590000Y-70825000D03*
X189130000Y-70825000D03*
X191670000Y-70825000D03*
X194210000Y-70825000D03*
D10*
X196750000Y-70825000D03*
D11*
X158650000Y-101825000D03*
X161190000Y-101825000D03*
X163730000Y-101825000D03*
X166270000Y-101825000D03*
X168810000Y-101825000D03*
X171350000Y-101825000D03*
X173890000Y-101825000D03*
X176430000Y-101825000D03*
X178970000Y-101825000D03*
X181510000Y-101825000D03*
X184050000Y-101825000D03*
X186590000Y-101825000D03*
X189130000Y-101825000D03*
X191670000Y-101825000D03*
X194210000Y-101825000D03*
D10*
X196750000Y-101825000D03*
X188915000Y-117275000D03*
D11*
X191455000Y-117275000D03*
X193995000Y-117275000D03*
X196535000Y-117275000D03*
X199075000Y-117275000D03*
D10*
X188915000Y-135055000D03*
D11*
X191455000Y-135055000D03*
X193995000Y-135055000D03*
X196535000Y-135055000D03*
X199075000Y-135055000D03*
D10*
X139450300Y-82738100D03*
D11*
X136910300Y-82738100D03*
X134370300Y-82738100D03*
D21*
X141450000Y-121200000D03*
X97975000Y-99575000D03*
X193075000Y-97221900D03*
X196675000Y-98325000D03*
X98975000Y-98300000D03*
X101175000Y-115675000D03*
X139450000Y-79000000D03*
X131850000Y-84825000D03*
X137850000Y-86250000D03*
X181575000Y-99425000D03*
X186575000Y-104175000D03*
X195025000Y-104300000D03*
X184125000Y-103450000D03*
X194025000Y-103525000D03*
X191900000Y-75825000D03*
X189050000Y-75925000D03*
X186600000Y-75825000D03*
X184100000Y-75650000D03*
X181325000Y-75550000D03*
X151600000Y-77100000D03*
X158500000Y-77100000D03*
X158625000Y-68925000D03*
X158625000Y-96625000D03*
X168475000Y-99875000D03*
X168625000Y-98375000D03*
X186000000Y-97850000D03*
X183975000Y-98555100D03*
X181450000Y-105750000D03*
X174075000Y-106200000D03*
X177950000Y-103050000D03*
X176050000Y-103713581D03*
X173890000Y-104283481D03*
X171325000Y-104944900D03*
X104375000Y-91175000D03*
X141650000Y-92700000D03*
X142400000Y-96100000D03*
X99600000Y-70350000D03*
X154950000Y-133975000D03*
X157150000Y-117400000D03*
X165850000Y-117025000D03*
X155050000Y-131250000D03*
X165596900Y-115925000D03*
X166025000Y-105075000D03*
X156400000Y-116525000D03*
X155050000Y-128750000D03*
X155600000Y-106925000D03*
X161050000Y-106500000D03*
X161100000Y-104375000D03*
X154950000Y-126275000D03*
X154944900Y-103713581D03*
X154450000Y-123325000D03*
X154375000Y-103125000D03*
X149875000Y-112450000D03*
X151400000Y-112300000D03*
X150750000Y-74700000D03*
X150900000Y-115925000D03*
X139900000Y-133975000D03*
X149925000Y-110525000D03*
X150175262Y-74125262D03*
X138525000Y-110950000D03*
X140150000Y-131225000D03*
X139375000Y-111450000D03*
X149050000Y-111275000D03*
X149200000Y-73425000D03*
X140305100Y-126150000D03*
X140155100Y-112025000D03*
X141325000Y-111875000D03*
X141000000Y-128900000D03*
X140725000Y-102600000D03*
X148500000Y-102350000D03*
X148422123Y-72869900D03*
X206175000Y-72125000D03*
X205825000Y-76800000D03*
X163525000Y-80625000D03*
X181475000Y-80300000D03*
X199250000Y-75100000D03*
X198600000Y-99125000D03*
X123575000Y-122025000D03*
X123625000Y-137025000D03*
X110325000Y-121975000D03*
X126700000Y-122025000D03*
X141450000Y-113025000D03*
X145750000Y-112850000D03*
X145250000Y-112025000D03*
X142150000Y-112375000D03*
X141825000Y-101750000D03*
X147750000Y-101300000D03*
X147775000Y-72300000D03*
X173150000Y-121800000D03*
X192850000Y-100000000D03*
X159850000Y-105425000D03*
X110200000Y-104775000D03*
X126650000Y-104750000D03*
X110775000Y-79525000D03*
X211500000Y-80000000D03*
X205850000Y-116675000D03*
X205625000Y-87550000D03*
X204600000Y-113175000D03*
X205150000Y-86575000D03*
X204625000Y-111475000D03*
X204300000Y-85950000D03*
X203900000Y-109000000D03*
X203775000Y-85200000D03*
X203350000Y-105825000D03*
X203000000Y-84575000D03*
X206330100Y-99150000D03*
X198600000Y-98142873D03*
X198326464Y-83675000D03*
X206900000Y-98250000D03*
X197569900Y-83100000D03*
X197756564Y-97572973D03*
X197075000Y-97025000D03*
X196900000Y-82125000D03*
X132625000Y-94200000D03*
X128450000Y-99278100D03*
X128475000Y-71900000D03*
X127400000Y-72200000D03*
X127425000Y-99875000D03*
X215075000Y-116675000D03*
X195400000Y-96150000D03*
X215800000Y-113975000D03*
X193050000Y-95500000D03*
X215325000Y-96625000D03*
X190525000Y-94769900D03*
X214725000Y-96000000D03*
X188050000Y-94200000D03*
X214125000Y-95275000D03*
X185600000Y-93625000D03*
X211075000Y-94369900D03*
X178125000Y-93400000D03*
X213525000Y-94325000D03*
X180050000Y-92225000D03*
X212875000Y-93125000D03*
X208100000Y-92925000D03*
X183100000Y-90950000D03*
X207174563Y-91665744D03*
X170000000Y-91775000D03*
X154350000Y-92000000D03*
X207900000Y-85650000D03*
X207075000Y-79075000D03*
X140225000Y-88075000D03*
X146300000Y-99278100D03*
X146300000Y-85700000D03*
X163450000Y-84675000D03*
X166750000Y-84025000D03*
X145425000Y-85475000D03*
X201950000Y-126800000D03*
X203850000Y-124175000D03*
X193350000Y-114155100D03*
X192750000Y-115969900D03*
X180400000Y-99750000D03*
X114425000Y-99425000D03*
X145175000Y-99875000D03*
X113300000Y-91625000D03*
X115074026Y-98935702D03*
X114150000Y-92575000D03*
X162371000Y-135650000D03*
X159875000Y-114525000D03*
X159725000Y-135200000D03*
X160525000Y-126875000D03*
X112875000Y-109525000D03*
X194100000Y-137225000D03*
X129250000Y-109550000D03*
X160450000Y-136550000D03*
X188250000Y-129350000D03*
X165000000Y-120850000D03*
X131875000Y-108900000D03*
X162425000Y-121050000D03*
X115500000Y-108825000D03*
X199106424Y-120838559D03*
X164825000Y-108825000D03*
X213444900Y-100750000D03*
D22*
X142150000Y-121370000D02*
X144425000Y-123645000D01*
X142150000Y-112375000D02*
X142150000Y-121370000D01*
D23*
X96750000Y-108185000D02*
X98925000Y-110360000D01*
X96750000Y-106050000D02*
X96750000Y-108185000D01*
X97975000Y-104825000D02*
X96750000Y-106050000D01*
X97975000Y-99575000D02*
X97975000Y-104825000D01*
X194210000Y-98356900D02*
X193075000Y-97221900D01*
X194210000Y-101825000D02*
X194210000Y-98356900D01*
X98925000Y-98350000D02*
X98925000Y-107820000D01*
X98975000Y-98300000D02*
X98925000Y-98350000D01*
X196750000Y-98400000D02*
X196675000Y-98325000D01*
X196750000Y-101825000D02*
X196750000Y-98400000D01*
D24*
X102200000Y-93475000D02*
X102200000Y-109625000D01*
X102200000Y-109625000D02*
X98925000Y-112900000D01*
X99600000Y-90875000D02*
X102200000Y-93475000D01*
X99600000Y-70350000D02*
X99600000Y-90875000D01*
X103750000Y-113100000D02*
X101175000Y-115675000D01*
X104375000Y-91175000D02*
X103750000Y-91800000D01*
X103750000Y-91800000D02*
X103750000Y-113100000D01*
D22*
X191900000Y-74325000D02*
X191670000Y-74095000D01*
X191670000Y-74095000D02*
X191670000Y-70825000D01*
X191900000Y-75825000D02*
X191900000Y-74325000D01*
X189130000Y-75845000D02*
X189130000Y-70825000D01*
X189050000Y-75925000D02*
X189130000Y-75845000D01*
X186600000Y-75825000D02*
X186590000Y-75815000D01*
X186590000Y-75815000D02*
X186590000Y-70825000D01*
X184050000Y-75600000D02*
X184050000Y-70825000D01*
X184100000Y-75650000D02*
X184050000Y-75600000D01*
X181510000Y-75365000D02*
X181510000Y-70825000D01*
X181325000Y-75550000D02*
X181510000Y-75365000D01*
D23*
X132036900Y-82738100D02*
X134370300Y-82738100D01*
X131850000Y-82925000D02*
X132036900Y-82738100D01*
X131850000Y-84825000D02*
X131850000Y-82925000D01*
X137945000Y-86345000D02*
X137945000Y-89585000D01*
X137850000Y-86250000D02*
X137945000Y-86345000D01*
X139450300Y-79000300D02*
X139450000Y-79000000D01*
X139450300Y-82738100D02*
X139450300Y-79000300D01*
D22*
X181510000Y-99490000D02*
X181510000Y-101825000D01*
X181575000Y-99425000D02*
X181510000Y-99490000D01*
X173890000Y-104283481D02*
X173890000Y-101825000D01*
X163215000Y-80315000D02*
X163215000Y-76875000D01*
X163525000Y-80625000D02*
X163215000Y-80315000D01*
X182610000Y-84360000D02*
X182610000Y-89645000D01*
X181475000Y-83525000D02*
X181775000Y-83525000D01*
X181475000Y-80300000D02*
X181475000Y-83525000D01*
X181775000Y-83525000D02*
X182610000Y-84360000D01*
D23*
X186575000Y-101840000D02*
X186590000Y-101825000D01*
X186575000Y-104175000D02*
X186575000Y-101840000D01*
X195125000Y-115525000D02*
X195125000Y-104400000D01*
X197325000Y-115525000D02*
X195125000Y-115525000D01*
X195125000Y-104400000D02*
X195025000Y-104300000D01*
X199075000Y-117275000D02*
X197325000Y-115525000D01*
X184125000Y-101900000D02*
X184050000Y-101825000D01*
X184125000Y-103450000D02*
X184125000Y-101900000D01*
X194300000Y-115975000D02*
X194300000Y-103800000D01*
X194300000Y-103800000D02*
X194025000Y-103525000D01*
X195235000Y-115975000D02*
X194300000Y-115975000D01*
X196535000Y-117275000D02*
X195235000Y-115975000D01*
D22*
X150100000Y-74200524D02*
X150100000Y-110350000D01*
X150100000Y-110350000D02*
X149925000Y-110525000D01*
X150175262Y-74125262D02*
X150100000Y-74200524D01*
X150750000Y-74700000D02*
X150750000Y-115775000D01*
X150750000Y-115775000D02*
X150900000Y-115925000D01*
X151600000Y-77100000D02*
X151600000Y-112100000D01*
D23*
X158500000Y-73515000D02*
X161190000Y-70825000D01*
X158500000Y-77100000D02*
X158500000Y-73515000D01*
D24*
X158650000Y-68950000D02*
X158625000Y-68925000D01*
X158650000Y-70825000D02*
X158650000Y-68950000D01*
X158650000Y-101825000D02*
X158650000Y-96650000D01*
X158650000Y-96650000D02*
X158625000Y-96625000D01*
D23*
X168625000Y-99725000D02*
X168475000Y-99875000D01*
X168625000Y-98375000D02*
X168625000Y-99725000D01*
X186590000Y-98440000D02*
X186000000Y-97850000D01*
X186590000Y-101825000D02*
X186590000Y-98440000D01*
X184050000Y-98630100D02*
X183975000Y-98555100D01*
X184050000Y-101825000D02*
X184050000Y-98630100D01*
X184100000Y-101825000D02*
X184300000Y-101625000D01*
X184050000Y-101825000D02*
X184100000Y-101825000D01*
D22*
X181510000Y-105690000D02*
X181510000Y-101825000D01*
X181450000Y-105750000D02*
X181510000Y-105690000D01*
X173800000Y-121150000D02*
X173800000Y-106475000D01*
X173800000Y-121150000D02*
X173150000Y-121800000D01*
X173800000Y-106475000D02*
X174075000Y-106200000D01*
X177950000Y-103050000D02*
X177950000Y-102845000D01*
X177950000Y-102845000D02*
X178970000Y-101825000D01*
X176430000Y-103333581D02*
X176430000Y-101825000D01*
X176050000Y-103713581D02*
X176430000Y-103333581D01*
X171325000Y-104944900D02*
X171325000Y-102179000D01*
X171325000Y-102179000D02*
X171350000Y-102179000D01*
X167510000Y-103125000D02*
X168559684Y-102075316D01*
X167475000Y-103125000D02*
X167510000Y-103125000D01*
X167475000Y-105200000D02*
X167475000Y-103125000D01*
X166850000Y-105825000D02*
X167475000Y-105200000D01*
D25*
X163121000Y-136400000D02*
X162371000Y-135650000D01*
X184025000Y-136400000D02*
X163121000Y-136400000D01*
X192637000Y-136413000D02*
X193995000Y-135055000D01*
X184038000Y-136413000D02*
X192637000Y-136413000D01*
X184025000Y-136400000D02*
X184038000Y-136413000D01*
X162371000Y-135650000D02*
X162371000Y-129348000D01*
X158950000Y-134425000D02*
X158950000Y-125300000D01*
X159725000Y-135200000D02*
X158950000Y-134425000D01*
X158950000Y-125300000D02*
X158950000Y-115450000D01*
X158950000Y-115450000D02*
X159875000Y-114525000D01*
D24*
X142400000Y-93450000D02*
X141650000Y-92700000D01*
X142400000Y-96100000D02*
X142400000Y-93450000D01*
D22*
X157150000Y-131775000D02*
X154950000Y-133975000D01*
X157150000Y-117400000D02*
X157150000Y-131775000D01*
X166850000Y-116025000D02*
X165850000Y-117025000D01*
X166850000Y-105825000D02*
X166850000Y-116025000D01*
X156400000Y-129900000D02*
X155050000Y-131250000D01*
X156400000Y-116525000D02*
X156400000Y-129900000D01*
X166025000Y-115496900D02*
X165596900Y-115925000D01*
X166025000Y-105075000D02*
X166025000Y-115496900D01*
X155600000Y-106925000D02*
X155600000Y-128200000D01*
X161100000Y-106450000D02*
X161050000Y-106500000D01*
X161100000Y-104375000D02*
X161100000Y-106450000D01*
X155600000Y-128200000D02*
X155050000Y-128750000D01*
X155019900Y-126205100D02*
X154950000Y-126275000D01*
X155019900Y-103788581D02*
X155019900Y-126205100D01*
X154944900Y-103713581D02*
X155019900Y-103788581D01*
X154375000Y-103125000D02*
X154375000Y-123250000D01*
X154375000Y-123250000D02*
X154450000Y-123325000D01*
X149875000Y-112450000D02*
X149875000Y-116015000D01*
X149875000Y-116015000D02*
X152425000Y-118565000D01*
X151600000Y-112100000D02*
X151400000Y-112300000D01*
X138725000Y-132800000D02*
X139900000Y-133975000D01*
X138725000Y-112300000D02*
X138725000Y-132800000D01*
X138725000Y-111150000D02*
X138725000Y-112300000D01*
X138525000Y-110950000D02*
X138725000Y-111150000D01*
X139585200Y-130660200D02*
X140150000Y-131225000D01*
X139585200Y-111788939D02*
X139585200Y-130660200D01*
X139997139Y-111377000D02*
X139585200Y-111788939D01*
X139448000Y-111377000D02*
X140313061Y-111377000D01*
X139375000Y-111450000D02*
X139448000Y-111377000D01*
X149200000Y-111125000D02*
X149050000Y-111275000D01*
X149200000Y-73425000D02*
X149200000Y-111125000D01*
X140313061Y-111377000D02*
X139997139Y-111377000D01*
X140155100Y-126000000D02*
X140305100Y-126150000D01*
X140155100Y-112025000D02*
X140155100Y-126000000D01*
X141325000Y-102250000D02*
X141325000Y-111875000D01*
X141825000Y-101750000D02*
X141325000Y-102250000D01*
X140875000Y-113750000D02*
X140875000Y-128775000D01*
X140725000Y-113600000D02*
X140875000Y-113750000D01*
X140875000Y-128775000D02*
X141000000Y-128900000D01*
X140725000Y-102600000D02*
X140725000Y-113600000D01*
X148500000Y-73500000D02*
X148500000Y-102350000D01*
X148325000Y-73325000D02*
X148500000Y-73500000D01*
X148325000Y-72967023D02*
X148325000Y-73325000D01*
X148422123Y-72869900D02*
X148325000Y-72967023D01*
X205825000Y-76800000D02*
X205825000Y-72475000D01*
X205825000Y-72475000D02*
X206175000Y-72125000D01*
X199250000Y-98475000D02*
X198600000Y-99125000D01*
X199250000Y-75100000D02*
X199250000Y-98475000D01*
D25*
X123625000Y-122075000D02*
X123575000Y-122025000D01*
X123625000Y-137025000D02*
X123625000Y-122075000D01*
D24*
X110193000Y-122107000D02*
X110325000Y-121975000D01*
X110193000Y-124461000D02*
X110193000Y-122107000D01*
X126670000Y-122055000D02*
X126700000Y-122025000D01*
X126670000Y-124450000D02*
X126670000Y-122055000D01*
D22*
X141450000Y-113025000D02*
X141450000Y-121200000D01*
X146300000Y-112300000D02*
X145750000Y-112850000D01*
X146300000Y-99278100D02*
X146300000Y-112300000D01*
X145175000Y-111950000D02*
X145250000Y-112025000D01*
X145175000Y-99875000D02*
X145175000Y-111950000D01*
X147775000Y-101275000D02*
X147750000Y-101300000D01*
X147775000Y-72300000D02*
X147775000Y-101275000D01*
X192850000Y-103825000D02*
X192850000Y-100000000D01*
X193350000Y-104325000D02*
X192850000Y-103825000D01*
X159850000Y-114500000D02*
X159875000Y-114525000D01*
D24*
X159850000Y-105425000D02*
X159850000Y-114500000D01*
D22*
X126650000Y-106650000D02*
X126670000Y-106670000D01*
D24*
X126650000Y-104750000D02*
X126650000Y-106650000D01*
D22*
X110193000Y-104782000D02*
X110200000Y-104775000D01*
D24*
X110193000Y-106681000D02*
X110193000Y-104782000D01*
D22*
X110386000Y-80164000D02*
X110386000Y-87446000D01*
X110775000Y-79775000D02*
X110386000Y-80164000D01*
X110775000Y-79525000D02*
X110775000Y-79775000D01*
X211500000Y-90800000D02*
X211500000Y-80000000D01*
X211550000Y-90850000D02*
X211500000Y-90800000D01*
X211500000Y-90900000D02*
X211550000Y-90850000D01*
X209850000Y-90900000D02*
X211500000Y-90900000D01*
X205677000Y-116502000D02*
X205850000Y-116675000D01*
X205677000Y-87602000D02*
X205677000Y-116502000D01*
X205625000Y-87550000D02*
X205677000Y-87602000D01*
X205350000Y-112425000D02*
X204600000Y-113175000D01*
X205350000Y-111200000D02*
X205350000Y-111850000D01*
X205000000Y-110850000D02*
X205350000Y-111200000D01*
X205000000Y-101325000D02*
X205000000Y-110850000D01*
X205350000Y-111850000D02*
X205350000Y-112425000D01*
X205025000Y-101300000D02*
X205000000Y-101325000D01*
X205025000Y-88350000D02*
X205025000Y-101300000D01*
X205025000Y-86700000D02*
X205025000Y-88350000D01*
X205150000Y-86575000D02*
X205025000Y-86700000D01*
X204300000Y-85950000D02*
X204469900Y-86119900D01*
X204469900Y-111319900D02*
X204625000Y-111475000D01*
X204469900Y-86119900D02*
X204469900Y-111319900D01*
X203919900Y-108980100D02*
X203900000Y-109000000D01*
X203900000Y-105375000D02*
X203919900Y-105394900D01*
X203525000Y-105000000D02*
X203900000Y-105375000D01*
X203525000Y-86200000D02*
X203525000Y-105000000D01*
X203525000Y-85450000D02*
X203525000Y-86200000D01*
X203775000Y-85200000D02*
X203525000Y-85450000D01*
X203919900Y-105394900D02*
X203919900Y-108980100D01*
X203000000Y-105475000D02*
X203350000Y-105825000D01*
X203000000Y-84575000D02*
X203000000Y-105475000D01*
X206330100Y-100030100D02*
X207150000Y-100850000D01*
X207150000Y-102475000D02*
X208560000Y-103885000D01*
X206330100Y-99150000D02*
X206330100Y-100030100D01*
X207150000Y-100850000D02*
X207150000Y-102475000D01*
X198326464Y-97869337D02*
X198600000Y-98142873D01*
X198326464Y-83675000D02*
X198326464Y-97869337D01*
X206900000Y-99685000D02*
X208560000Y-101345000D01*
X206900000Y-98250000D02*
X206900000Y-99685000D01*
X197756564Y-83286664D02*
X197756564Y-97572973D01*
X197569900Y-83100000D02*
X197756564Y-83286664D01*
X197000000Y-96950000D02*
X197075000Y-97025000D01*
X196900000Y-82125000D02*
X197000000Y-82225000D01*
X197000000Y-82225000D02*
X197000000Y-96950000D01*
X132540000Y-94285000D02*
X132625000Y-94200000D01*
X132540000Y-96400000D02*
X132540000Y-94285000D01*
D23*
X114250000Y-98111676D02*
X115074026Y-98935702D01*
X114250000Y-92675000D02*
X114250000Y-98111676D01*
X114150000Y-92575000D02*
X114250000Y-92675000D01*
X113400000Y-91725000D02*
X113400000Y-98400000D01*
X113300000Y-91625000D02*
X113400000Y-91725000D01*
X113400000Y-98400000D02*
X114425000Y-99425000D01*
D22*
X128475000Y-99253100D02*
X128450000Y-99278100D01*
X128475000Y-71900000D02*
X128475000Y-99253100D01*
X127400000Y-99850000D02*
X127425000Y-99875000D01*
X127400000Y-72200000D02*
X127400000Y-99850000D01*
X214610000Y-116585000D02*
X211100000Y-116585000D01*
X214700000Y-116675000D02*
X214610000Y-116585000D01*
X215075000Y-116675000D02*
X214700000Y-116675000D01*
X195310000Y-89645000D02*
X195310000Y-96060000D01*
X195310000Y-96060000D02*
X195400000Y-96150000D01*
X215730000Y-114045000D02*
X211100000Y-114045000D01*
X215800000Y-113975000D02*
X215730000Y-114045000D01*
X214695000Y-111505000D02*
X211100000Y-111505000D01*
X215325000Y-110875000D02*
X214695000Y-111505000D01*
X215325000Y-96625000D02*
X215325000Y-110875000D01*
X214185000Y-108965000D02*
X211100000Y-108965000D01*
X214725000Y-108425000D02*
X214185000Y-108965000D01*
X214725000Y-96000000D02*
X214725000Y-108425000D01*
X212175000Y-105350000D02*
X211100000Y-106425000D01*
X214125000Y-105350000D02*
X212175000Y-105350000D01*
X192770000Y-95220000D02*
X193050000Y-95500000D01*
X192770000Y-89645000D02*
X192770000Y-95220000D01*
X190230000Y-94474900D02*
X190525000Y-94769900D01*
X190230000Y-89645000D02*
X190230000Y-94474900D01*
X187690000Y-93840000D02*
X188050000Y-94200000D01*
X187690000Y-89645000D02*
X187690000Y-93840000D01*
X214125000Y-95275000D02*
X214125000Y-105350000D01*
X185150000Y-93175000D02*
X185600000Y-93625000D01*
X185150000Y-89645000D02*
X185150000Y-93175000D01*
X211100000Y-94394900D02*
X211100000Y-98805000D01*
X211075000Y-94369900D02*
X211100000Y-94394900D01*
X177530000Y-92805000D02*
X178125000Y-93400000D01*
X177530000Y-89645000D02*
X177530000Y-92805000D01*
X213525000Y-100669900D02*
X213444900Y-100750000D01*
X213525000Y-94325000D02*
X213525000Y-100669900D01*
X180070000Y-92205000D02*
X180070000Y-89645000D01*
X180050000Y-92225000D02*
X180070000Y-92205000D01*
X180070000Y-92245000D02*
X180050000Y-92225000D01*
X212875000Y-102110000D02*
X211100000Y-103885000D01*
X212875000Y-93125000D02*
X212875000Y-102110000D01*
X207174563Y-91999563D02*
X208100000Y-92925000D01*
X207174563Y-91665744D02*
X207174563Y-91999563D01*
X182610000Y-90460000D02*
X183100000Y-90950000D01*
X182610000Y-89645000D02*
X182610000Y-90460000D01*
X180070000Y-99420000D02*
X180070000Y-92245000D01*
X180400000Y-99750000D02*
X180070000Y-99420000D01*
X169910000Y-91685000D02*
X169910000Y-89645000D01*
X170000000Y-91775000D02*
X169910000Y-91685000D01*
X153710000Y-91360000D02*
X154350000Y-92000000D01*
X153710000Y-75875000D02*
X153710000Y-91360000D01*
X207900000Y-79900000D02*
X207900000Y-85650000D01*
X207075000Y-79075000D02*
X207900000Y-79900000D01*
X140160000Y-88140000D02*
X140225000Y-88075000D01*
X140160000Y-96400000D02*
X140160000Y-88140000D01*
X146300000Y-85700000D02*
X146300000Y-99278100D01*
X164830000Y-83295000D02*
X163450000Y-84675000D01*
X164830000Y-82025000D02*
X164830000Y-83295000D01*
X167370000Y-83405000D02*
X167370000Y-82025000D01*
X166750000Y-84025000D02*
X167370000Y-83405000D01*
X145425000Y-99625000D02*
X145175000Y-99875000D01*
X145425000Y-85475000D02*
X145425000Y-99625000D01*
D26*
X112733000Y-131238000D02*
X112601000Y-131370000D01*
X112733000Y-124461000D02*
X112733000Y-131238000D01*
X129210000Y-131461000D02*
X129176000Y-131495000D01*
X129210000Y-124450000D02*
X129210000Y-131461000D01*
D24*
X178025000Y-127222000D02*
X180151000Y-129348000D01*
X178025000Y-115311000D02*
X178025000Y-127222000D01*
X179340000Y-113996000D02*
X178025000Y-115311000D01*
X180390000Y-113996000D02*
X179340000Y-113996000D01*
D26*
X199410000Y-112835000D02*
X199410000Y-109765000D01*
X202025000Y-115450000D02*
X199410000Y-112835000D01*
X202025000Y-126275000D02*
X202025000Y-115450000D01*
X201950000Y-126350000D02*
X202025000Y-126275000D01*
X201950000Y-126800000D02*
X201950000Y-126350000D01*
X203875000Y-114230000D02*
X201950000Y-112305000D01*
X203850000Y-114925000D02*
X203875000Y-114900000D01*
X203875000Y-114900000D02*
X203875000Y-114230000D01*
X203850000Y-124175000D02*
X203850000Y-114925000D01*
X183635000Y-109990000D02*
X188610000Y-109990000D01*
X182169000Y-111456000D02*
X183635000Y-109990000D01*
X180390000Y-111456000D02*
X182169000Y-111456000D01*
D27*
X115273000Y-128698000D02*
X115141000Y-128830000D01*
X131750000Y-128921000D02*
X131716000Y-128955000D01*
D22*
X191455000Y-117275000D02*
X191455000Y-117264900D01*
X191455000Y-117264900D02*
X192750000Y-115969900D01*
X193350000Y-114155100D02*
X193350000Y-104325000D01*
D23*
X196350000Y-117460000D02*
X196535000Y-117275000D01*
X160450000Y-136550000D02*
X160450000Y-126950000D01*
X112875000Y-109525000D02*
X112733000Y-109383000D01*
X129250000Y-109550000D02*
X129210000Y-109510000D01*
X160525000Y-113541000D02*
X162610000Y-111456000D01*
X160450000Y-126950000D02*
X160525000Y-126875000D01*
X112733000Y-109383000D02*
X112733000Y-106681000D01*
X194365000Y-137225000D02*
X194100000Y-137225000D01*
X196535000Y-135055000D02*
X194365000Y-137225000D01*
X160525000Y-126875000D02*
X160525000Y-113541000D01*
X129210000Y-109510000D02*
X129210000Y-106670000D01*
D25*
X188250000Y-129350000D02*
X188915000Y-130015000D01*
X188915000Y-130015000D02*
X188915000Y-135055000D01*
D23*
X115500000Y-106908000D02*
X115273000Y-106681000D01*
X165000000Y-109000000D02*
X164825000Y-108825000D01*
X162371000Y-121104000D02*
X162371000Y-124268000D01*
X199075000Y-120869983D02*
X199106424Y-120838559D01*
X131875000Y-108900000D02*
X131875000Y-106795000D01*
X199075000Y-135055000D02*
X199075000Y-120869983D01*
X131875000Y-106795000D02*
X131750000Y-106670000D01*
X162425000Y-121050000D02*
X162371000Y-121104000D01*
X165000000Y-120850000D02*
X165000000Y-109000000D01*
X115500000Y-108825000D02*
X115500000Y-106908000D01*
M02*
