M48
; DRILL file {KiCad 8.0.6} date 2025-04-04T16:39:22-0400
; FORMAT={-:-/ absolute / metric / decimal}
; #@! TF.CreationDate,2025-04-04T16:39:22-04:00
; #@! TF.GenerationSoftware,Kicad,Pcbnew,8.0.6
; #@! TF.FileFunction,Plated,1,4,PTH
FMAT,2
METRIC
; #@! TA.AperFunction,Plated,PTH,ViaDrill
T1C0.330
; #@! TA.AperFunction,Plated,PTH,ComponentDrill
T2C0.750
; #@! TA.AperFunction,Plated,PTH,ComponentDrill
T3C0.800
; #@! TA.AperFunction,Plated,PTH,ComponentDrill
T4C1.000
; #@! TA.AperFunction,Plated,PTH,ComponentDrill
T5C1.100
; #@! TA.AperFunction,Plated,PTH,ComponentDrill
T6C1.500
; #@! TA.AperFunction,Plated,PTH,ComponentDrill
T7C1.700
; #@! TA.AperFunction,Plated,PTH,ComponentDrill
T8C2.000
; #@! TA.AperFunction,Plated,PTH,ComponentDrill
T9C2.540
%
G90
G05
T1
X97.975Y-99.575
X98.975Y-98.3
X99.6Y-70.35
X101.175Y-115.675
X104.375Y-91.175
X110.2Y-104.775
X110.325Y-121.975
X110.775Y-79.525
X112.875Y-109.525
X113.3Y-91.625
X114.15Y-92.575
X114.425Y-99.425
X115.074Y-98.936
X115.5Y-108.825
X123.575Y-122.025
X123.625Y-137.025
X126.65Y-104.75
X126.7Y-122.025
X127.4Y-72.2
X127.425Y-99.875
X128.45Y-99.278
X128.475Y-71.9
X129.25Y-109.55
X131.85Y-84.825
X131.875Y-108.9
X132.625Y-94.2
X137.85Y-86.25
X138.525Y-110.95
X139.375Y-111.45
X139.45Y-79.0
X139.9Y-133.975
X140.15Y-131.225
X140.155Y-112.025
X140.225Y-88.075
X140.305Y-126.15
X140.725Y-102.6
X141.0Y-128.9
X141.325Y-111.875
X141.45Y-113.025
X141.45Y-121.2
X141.65Y-92.7
X141.825Y-101.75
X142.15Y-112.375
X142.4Y-96.1
X145.175Y-99.875
X145.25Y-112.025
X145.425Y-85.475
X145.75Y-112.85
X146.3Y-85.7
X146.3Y-99.278
X147.75Y-101.3
X147.775Y-72.3
X148.422Y-72.87
X148.5Y-102.35
X149.05Y-111.275
X149.2Y-73.425
X149.875Y-112.45
X149.925Y-110.525
X150.175Y-74.125
X150.75Y-74.7
X150.9Y-115.925
X151.4Y-112.3
X151.6Y-77.1
X154.35Y-92.0
X154.375Y-103.125
X154.45Y-123.325
X154.945Y-103.714
X154.95Y-126.275
X154.95Y-133.975
X155.05Y-128.75
X155.05Y-131.25
X155.6Y-106.925
X156.4Y-116.525
X157.15Y-117.4
X158.5Y-77.1
X158.625Y-68.925
X158.625Y-96.625
X159.725Y-135.2
X159.85Y-105.425
X159.875Y-114.525
X160.45Y-136.55
X160.525Y-126.875
X161.05Y-106.5
X161.1Y-104.375
X162.371Y-135.65
X162.425Y-121.05
X163.45Y-84.675
X163.525Y-80.625
X164.825Y-108.825
X165.0Y-120.85
X165.597Y-115.925
X165.85Y-117.025
X166.025Y-105.075
X166.75Y-84.025
X168.475Y-99.875
X168.625Y-98.375
X170.0Y-91.775
X171.325Y-104.945
X173.15Y-121.8
X173.89Y-104.283
X174.075Y-106.2
X176.05Y-103.714
X177.95Y-103.05
X178.125Y-93.4
X180.05Y-92.225
X180.4Y-99.75
X181.325Y-75.55
X181.45Y-105.75
X181.475Y-80.3
X181.575Y-99.425
X183.1Y-90.95
X183.975Y-98.555
X184.1Y-75.65
X184.125Y-103.45
X185.6Y-93.625
X186.0Y-97.85
X186.575Y-104.175
X186.6Y-75.825
X188.05Y-94.2
X188.25Y-129.35
X189.05Y-75.925
X190.525Y-94.77
X191.9Y-75.825
X192.75Y-115.97
X192.85Y-100.0
X193.05Y-95.5
X193.075Y-97.222
X193.35Y-114.155
X194.025Y-103.525
X194.1Y-137.225
X195.025Y-104.3
X195.4Y-96.15
X196.675Y-98.325
X196.9Y-82.125
X197.075Y-97.025
X197.57Y-83.1
X197.757Y-97.573
X198.326Y-83.675
X198.6Y-98.143
X198.6Y-99.125
X199.106Y-120.839
X199.25Y-75.1
X201.95Y-126.8
X203.0Y-84.575
X203.35Y-105.825
X203.775Y-85.2
X203.85Y-124.175
X203.9Y-109.0
X204.3Y-85.95
X204.6Y-113.175
X204.625Y-111.475
X205.15Y-86.575
X205.625Y-87.55
X205.825Y-76.8
X205.85Y-116.675
X206.175Y-72.125
X206.33Y-99.15
X206.9Y-98.25
X207.075Y-79.075
X207.175Y-91.666
X207.9Y-85.65
X208.1Y-92.925
X211.075Y-94.37
X211.5Y-80.0
X212.875Y-93.125
X213.445Y-100.75
X213.525Y-94.325
X214.125Y-95.275
X214.725Y-96.0
X215.075Y-116.675
X215.325Y-96.625
X215.8Y-113.975
T2
X135.405Y-89.585
X136.675Y-88.315
X137.945Y-89.585
X175.11Y-77.85
X176.38Y-76.58
X177.65Y-77.85
T3
X107.025Y-92.73
X107.025Y-100.35
X111.075Y-92.73
X111.075Y-100.35
X132.54Y-96.4
X140.16Y-96.4
X146.09Y-75.875
X153.71Y-75.875
X162.29Y-82.025
X162.29Y-89.645
X163.215Y-76.875
X164.83Y-82.025
X164.83Y-89.645
X167.37Y-82.025
X167.37Y-89.645
X169.91Y-82.025
X169.91Y-89.645
X170.835Y-76.875
X172.45Y-82.025
X172.45Y-89.645
X174.99Y-82.025
X174.99Y-89.645
X177.53Y-82.025
X177.53Y-89.645
X180.07Y-82.025
X180.07Y-89.645
X182.61Y-82.025
X182.61Y-89.645
X185.15Y-82.025
X185.15Y-89.645
X187.69Y-82.025
X187.69Y-89.645
X190.23Y-82.025
X190.23Y-89.645
X192.77Y-82.025
X192.77Y-89.645
X195.31Y-82.025
X195.31Y-89.645
T4
X98.925Y-107.82
X98.925Y-110.36
X98.925Y-112.9
X98.925Y-115.44
X98.925Y-117.98
X110.193Y-106.681
X110.193Y-124.461
X112.733Y-106.681
X112.733Y-124.461
X115.273Y-106.681
X115.273Y-124.461
X126.67Y-106.67
X126.67Y-124.45
X129.21Y-106.67
X129.21Y-124.45
X131.75Y-106.67
X131.75Y-124.45
X134.37Y-82.738
X136.91Y-82.738
X139.45Y-82.738
X144.425Y-116.025
X144.425Y-118.565
X144.425Y-121.105
X144.425Y-123.645
X144.425Y-126.185
X144.425Y-128.725
X144.425Y-131.265
X144.425Y-133.805
X152.425Y-116.025
X152.425Y-118.565
X152.425Y-121.105
X152.425Y-123.645
X152.425Y-126.185
X152.425Y-128.725
X152.425Y-131.265
X152.425Y-133.805
X158.65Y-70.825
X158.65Y-101.825
X161.19Y-70.825
X161.19Y-101.825
X162.371Y-124.268
X162.371Y-126.808
X162.371Y-129.348
X162.61Y-108.916
X162.61Y-111.456
X162.61Y-113.996
X163.73Y-70.825
X163.73Y-101.825
X166.27Y-70.825
X166.27Y-101.825
X168.81Y-70.825
X168.81Y-101.825
X171.35Y-70.825
X171.35Y-101.825
X173.89Y-70.825
X173.89Y-101.825
X176.43Y-70.825
X176.43Y-101.825
X178.97Y-70.825
X178.97Y-101.825
X180.151Y-124.268
X180.151Y-126.808
X180.151Y-129.348
X180.39Y-108.916
X180.39Y-111.456
X180.39Y-113.996
X181.51Y-70.825
X181.51Y-101.825
X184.05Y-70.825
X184.05Y-101.825
X186.59Y-70.825
X186.59Y-101.825
X188.915Y-117.275
X188.915Y-135.055
X189.13Y-70.825
X189.13Y-101.825
X191.455Y-117.275
X191.455Y-135.055
X191.67Y-70.825
X191.67Y-101.825
X193.995Y-117.275
X193.995Y-135.055
X194.21Y-70.825
X194.21Y-101.825
X196.535Y-117.275
X196.535Y-135.055
X196.75Y-70.825
X196.75Y-101.825
X199.075Y-117.275
X199.075Y-135.055
X208.56Y-98.805
X208.56Y-101.345
X208.56Y-103.885
X208.56Y-106.425
X208.56Y-108.965
X208.56Y-111.505
X208.56Y-114.045
X208.56Y-116.585
X209.85Y-72.135
X209.85Y-74.675
X209.85Y-77.215
X209.85Y-85.82
X209.85Y-88.36
X209.85Y-90.9
X211.1Y-98.805
X211.1Y-101.345
X211.1Y-103.885
X211.1Y-106.425
X211.1Y-108.965
X211.1Y-111.505
X211.1Y-114.045
X211.1Y-116.585
T5
X107.846Y-74.746
X107.846Y-87.446
X110.386Y-74.746
X110.386Y-87.446
X112.926Y-74.746
X112.926Y-87.446
X115.466Y-74.746
X115.466Y-87.446
X118.006Y-74.746
X118.006Y-87.446
X120.546Y-74.746
X120.546Y-87.446
T6
X112.601Y-131.37
X129.176Y-131.495
X188.61Y-109.99
X199.41Y-109.765
T7
X110.061Y-128.83
X110.061Y-133.91
X115.141Y-128.83
X115.141Y-133.91
X126.636Y-128.955
X126.636Y-134.035
X131.716Y-128.955
X131.716Y-134.035
X186.07Y-107.45
X186.07Y-112.53
X191.15Y-107.45
X191.15Y-112.53
X196.87Y-107.225
X196.87Y-112.305
X201.95Y-107.225
X201.95Y-112.305
T8
X95.382Y-72.421
X95.382Y-100.161
X200.972Y-72.421
X200.972Y-100.161
T9
X104.04Y-74.95
X104.04Y-87.65
X124.36Y-74.95
X124.36Y-87.65
M30
