G04 #@! TF.GenerationSoftware,KiCad,Pcbnew,8.0.6*
G04 #@! TF.CreationDate,2025-04-04T16:39:19-04:00*
G04 #@! TF.ProjectId,Sea Wall Schematic 3,53656120-5761-46c6-9c20-536368656d61,rev?*
G04 #@! TF.SameCoordinates,Original*
G04 #@! TF.FileFunction,Copper,L4,Bot*
G04 #@! TF.FilePolarity,Positive*
%FSLAX46Y46*%
G04 Gerber Fmt 4.6, Leading zero omitted, Abs format (unit mm)*
G04 Created by KiCad (PCBNEW 8.0.6) date 2025-04-04 16:39:19*
%MOMM*%
%LPD*%
G01*
G04 APERTURE LIST*
G04 #@! TA.AperFunction,ComponentPad*
%ADD10R,1.700000X1.700000*%
G04 #@! TD*
G04 #@! TA.AperFunction,ComponentPad*
%ADD11O,1.700000X1.700000*%
G04 #@! TD*
G04 #@! TA.AperFunction,ComponentPad*
%ADD12C,1.600000*%
G04 #@! TD*
G04 #@! TA.AperFunction,ComponentPad*
%ADD13O,1.600000X1.600000*%
G04 #@! TD*
G04 #@! TA.AperFunction,ComponentPad*
%ADD14R,1.300000X1.300000*%
G04 #@! TD*
G04 #@! TA.AperFunction,ComponentPad*
%ADD15C,1.300000*%
G04 #@! TD*
G04 #@! TA.AperFunction,ComponentPad*
%ADD16C,2.050000*%
G04 #@! TD*
G04 #@! TA.AperFunction,ComponentPad*
%ADD17C,2.250000*%
G04 #@! TD*
G04 #@! TA.AperFunction,ComponentPad*
%ADD18C,3.700000*%
G04 #@! TD*
G04 #@! TA.AperFunction,ComponentPad*
%ADD19R,1.600000X1.600000*%
G04 #@! TD*
G04 #@! TA.AperFunction,ComponentPad*
%ADD20C,3.000000*%
G04 #@! TD*
G04 #@! TA.AperFunction,ViaPad*
%ADD21C,0.685800*%
G04 #@! TD*
G04 #@! TA.AperFunction,Conductor*
%ADD22C,0.200000*%
G04 #@! TD*
G04 #@! TA.AperFunction,Conductor*
%ADD23C,0.254000*%
G04 #@! TD*
G04 #@! TA.AperFunction,Conductor*
%ADD24C,0.508000*%
G04 #@! TD*
G04 #@! TA.AperFunction,Conductor*
%ADD25C,0.762000*%
G04 #@! TD*
G04 #@! TA.AperFunction,Conductor*
%ADD26C,0.887400*%
G04 #@! TD*
G04 APERTURE END LIST*
D10*
X98925000Y-107820000D03*
D11*
X98925000Y-110360000D03*
X98925000Y-112900000D03*
X98925000Y-115440000D03*
X98925000Y-117980000D03*
D12*
X163215000Y-76875000D03*
D13*
X170835000Y-76875000D03*
D14*
X175110000Y-77850000D03*
D15*
X176380000Y-76580000D03*
X177650000Y-77850000D03*
D12*
X146090000Y-75875000D03*
D13*
X153710000Y-75875000D03*
D16*
X199410000Y-109765000D03*
D17*
X201950000Y-112305000D03*
X201950000Y-107225000D03*
X196870000Y-112305000D03*
X196870000Y-107225000D03*
D10*
X209850000Y-72135000D03*
D11*
X209850000Y-74675000D03*
X209850000Y-77215000D03*
D16*
X112601000Y-131370000D03*
D17*
X110061000Y-133910000D03*
X115141000Y-133910000D03*
X110061000Y-128830000D03*
X115141000Y-128830000D03*
D10*
X209850000Y-85820000D03*
D11*
X209850000Y-88360000D03*
X209850000Y-90900000D03*
D10*
X162371000Y-129348000D03*
D11*
X162371000Y-126808000D03*
X162371000Y-124268000D03*
D10*
X180151000Y-129348000D03*
D11*
X180151000Y-126808000D03*
X180151000Y-124268000D03*
D18*
X124360000Y-87650000D03*
X124360000Y-74950000D03*
X104040000Y-87650000D03*
X104040000Y-74950000D03*
D11*
X120546000Y-74746000D03*
X118006000Y-74746000D03*
X115466000Y-74746000D03*
X112926000Y-74746000D03*
X110386000Y-74746000D03*
X107846000Y-74746000D03*
X120546000Y-87446000D03*
X118006000Y-87446000D03*
X115466000Y-87446000D03*
X112926000Y-87446000D03*
X110386000Y-87446000D03*
X107846000Y-87446000D03*
D10*
X110193000Y-106681000D03*
D11*
X112733000Y-106681000D03*
X115273000Y-106681000D03*
D10*
X110193000Y-124461000D03*
D11*
X112733000Y-124461000D03*
X115273000Y-124461000D03*
D10*
X126670000Y-106670000D03*
D11*
X129210000Y-106670000D03*
X131750000Y-106670000D03*
D10*
X126670000Y-124450000D03*
D11*
X129210000Y-124450000D03*
X131750000Y-124450000D03*
D12*
X111075000Y-100350000D03*
D13*
X111075000Y-92730000D03*
D12*
X132540000Y-96400000D03*
D13*
X140160000Y-96400000D03*
D19*
X195310000Y-82025000D03*
D13*
X192770000Y-82025000D03*
X190230000Y-82025000D03*
X187690000Y-82025000D03*
X185150000Y-82025000D03*
X182610000Y-82025000D03*
X180070000Y-82025000D03*
X177530000Y-82025000D03*
X174990000Y-82025000D03*
X172450000Y-82025000D03*
X169910000Y-82025000D03*
X167370000Y-82025000D03*
X164830000Y-82025000D03*
X162290000Y-82025000D03*
X162290000Y-89645000D03*
X164830000Y-89645000D03*
X167370000Y-89645000D03*
X169910000Y-89645000D03*
X172450000Y-89645000D03*
X174990000Y-89645000D03*
X177530000Y-89645000D03*
X180070000Y-89645000D03*
X182610000Y-89645000D03*
X185150000Y-89645000D03*
X187690000Y-89645000D03*
X190230000Y-89645000D03*
X192770000Y-89645000D03*
X195310000Y-89645000D03*
D12*
X107025000Y-100350000D03*
D13*
X107025000Y-92730000D03*
D10*
X144425000Y-116025000D03*
D11*
X144425000Y-118565000D03*
X144425000Y-121105000D03*
X144425000Y-123645000D03*
X144425000Y-126185000D03*
X144425000Y-128725000D03*
X144425000Y-131265000D03*
X144425000Y-133805000D03*
D10*
X152425000Y-116025000D03*
D11*
X152425000Y-118565000D03*
X152425000Y-121105000D03*
X152425000Y-123645000D03*
X152425000Y-126185000D03*
X152425000Y-128725000D03*
X152425000Y-131265000D03*
X152425000Y-133805000D03*
D14*
X135405000Y-89585000D03*
D15*
X136675000Y-88315000D03*
X137945000Y-89585000D03*
D10*
X208560000Y-98805000D03*
D11*
X211100000Y-98805000D03*
X208560000Y-101345000D03*
X211100000Y-101345000D03*
X208560000Y-103885000D03*
X211100000Y-103885000D03*
X208560000Y-106425000D03*
X211100000Y-106425000D03*
X208560000Y-108965000D03*
X211100000Y-108965000D03*
X208560000Y-111505000D03*
X211100000Y-111505000D03*
X208560000Y-114045000D03*
X211100000Y-114045000D03*
X208560000Y-116585000D03*
X211100000Y-116585000D03*
D16*
X188610000Y-109990000D03*
D17*
X191150000Y-112530000D03*
X191150000Y-107450000D03*
X186070000Y-112530000D03*
X186070000Y-107450000D03*
D16*
X129176000Y-131495000D03*
D17*
X126636000Y-134035000D03*
X131716000Y-134035000D03*
X126636000Y-128955000D03*
X131716000Y-128955000D03*
D10*
X162610000Y-113996000D03*
D11*
X162610000Y-111456000D03*
X162610000Y-108916000D03*
D10*
X180390000Y-113996000D03*
D11*
X180390000Y-111456000D03*
X180390000Y-108916000D03*
D20*
X200972000Y-72421000D03*
X95382000Y-72421000D03*
X200972000Y-100161000D03*
X95382000Y-100161000D03*
D11*
X158650000Y-70825000D03*
X161190000Y-70825000D03*
X163730000Y-70825000D03*
X166270000Y-70825000D03*
X168810000Y-70825000D03*
X171350000Y-70825000D03*
X173890000Y-70825000D03*
X176430000Y-70825000D03*
X178970000Y-70825000D03*
X181510000Y-70825000D03*
X184050000Y-70825000D03*
X186590000Y-70825000D03*
X189130000Y-70825000D03*
X191670000Y-70825000D03*
X194210000Y-70825000D03*
D10*
X196750000Y-70825000D03*
D11*
X158650000Y-101825000D03*
X161190000Y-101825000D03*
X163730000Y-101825000D03*
X166270000Y-101825000D03*
X168810000Y-101825000D03*
X171350000Y-101825000D03*
X173890000Y-101825000D03*
X176430000Y-101825000D03*
X178970000Y-101825000D03*
X181510000Y-101825000D03*
X184050000Y-101825000D03*
X186590000Y-101825000D03*
X189130000Y-101825000D03*
X191670000Y-101825000D03*
X194210000Y-101825000D03*
D10*
X196750000Y-101825000D03*
X188915000Y-117275000D03*
D11*
X191455000Y-117275000D03*
X193995000Y-117275000D03*
X196535000Y-117275000D03*
X199075000Y-117275000D03*
D10*
X188915000Y-135055000D03*
D11*
X191455000Y-135055000D03*
X193995000Y-135055000D03*
X196535000Y-135055000D03*
X199075000Y-135055000D03*
D10*
X139450300Y-82738100D03*
D11*
X136910300Y-82738100D03*
X134370300Y-82738100D03*
D21*
X141450000Y-121200000D03*
X97975000Y-99575000D03*
X193075000Y-97221900D03*
X196675000Y-98325000D03*
X98975000Y-98300000D03*
X101175000Y-115675000D03*
X139450000Y-79000000D03*
X131850000Y-84825000D03*
X137850000Y-86250000D03*
X181575000Y-99425000D03*
X186575000Y-104175000D03*
X195025000Y-104300000D03*
X184125000Y-103450000D03*
X194025000Y-103525000D03*
X191900000Y-75825000D03*
X189050000Y-75925000D03*
X186600000Y-75825000D03*
X184100000Y-75650000D03*
X181325000Y-75550000D03*
X151600000Y-77100000D03*
X158500000Y-77100000D03*
X158625000Y-68925000D03*
X158625000Y-96625000D03*
X168475000Y-99875000D03*
X168625000Y-98375000D03*
X186000000Y-97850000D03*
X183975000Y-98555100D03*
X181450000Y-105750000D03*
X174075000Y-106200000D03*
X177950000Y-103050000D03*
X176050000Y-103713581D03*
X173890000Y-104283481D03*
X171325000Y-104944900D03*
X104375000Y-91175000D03*
X141650000Y-92700000D03*
X142400000Y-96100000D03*
X99600000Y-70350000D03*
X154950000Y-133975000D03*
X157150000Y-117400000D03*
X165850000Y-117025000D03*
X155050000Y-131250000D03*
X165596900Y-115925000D03*
X166025000Y-105075000D03*
X156400000Y-116525000D03*
X155050000Y-128750000D03*
X155600000Y-106925000D03*
X161050000Y-106500000D03*
X161100000Y-104375000D03*
X154950000Y-126275000D03*
X154944900Y-103713581D03*
X154450000Y-123325000D03*
X154375000Y-103125000D03*
X149875000Y-112450000D03*
X151400000Y-112300000D03*
X150750000Y-74700000D03*
X150900000Y-115925000D03*
X139900000Y-133975000D03*
X149925000Y-110525000D03*
X150175262Y-74125262D03*
X138525000Y-110950000D03*
X140150000Y-131225000D03*
X139375000Y-111450000D03*
X149050000Y-111275000D03*
X149200000Y-73425000D03*
X140305100Y-126150000D03*
X140155100Y-112025000D03*
X141325000Y-111875000D03*
X141000000Y-128900000D03*
X140725000Y-102600000D03*
X148500000Y-102350000D03*
X148422123Y-72869900D03*
X206175000Y-72125000D03*
X205825000Y-76800000D03*
X163525000Y-80625000D03*
X181475000Y-80300000D03*
X199250000Y-75100000D03*
X198600000Y-99125000D03*
X123575000Y-122025000D03*
X123625000Y-137025000D03*
X110325000Y-121975000D03*
X126700000Y-122025000D03*
X141450000Y-113025000D03*
X145750000Y-112850000D03*
X145250000Y-112025000D03*
X142150000Y-112375000D03*
X141825000Y-101750000D03*
X147750000Y-101300000D03*
X147775000Y-72300000D03*
X173150000Y-121800000D03*
X192850000Y-100000000D03*
X159850000Y-105425000D03*
X110200000Y-104775000D03*
X126650000Y-104750000D03*
X110775000Y-79525000D03*
X211500000Y-80000000D03*
X205850000Y-116675000D03*
X205625000Y-87550000D03*
X204600000Y-113175000D03*
X205150000Y-86575000D03*
X204625000Y-111475000D03*
X204300000Y-85950000D03*
X203900000Y-109000000D03*
X203775000Y-85200000D03*
X203350000Y-105825000D03*
X203000000Y-84575000D03*
X206330100Y-99150000D03*
X198600000Y-98142873D03*
X198326464Y-83675000D03*
X206900000Y-98250000D03*
X197569900Y-83100000D03*
X197756564Y-97572973D03*
X197075000Y-97025000D03*
X196900000Y-82125000D03*
X132625000Y-94200000D03*
X128450000Y-99278100D03*
X128475000Y-71900000D03*
X127400000Y-72200000D03*
X127425000Y-99875000D03*
X215075000Y-116675000D03*
X195400000Y-96150000D03*
X215800000Y-113975000D03*
X193050000Y-95500000D03*
X215325000Y-96625000D03*
X190525000Y-94769900D03*
X214725000Y-96000000D03*
X188050000Y-94200000D03*
X214125000Y-95275000D03*
X185600000Y-93625000D03*
X211075000Y-94369900D03*
X178125000Y-93400000D03*
X213525000Y-94325000D03*
X180050000Y-92225000D03*
X212875000Y-93125000D03*
X208100000Y-92925000D03*
X183100000Y-90950000D03*
X207174563Y-91665744D03*
X170000000Y-91775000D03*
X154350000Y-92000000D03*
X207900000Y-85650000D03*
X207075000Y-79075000D03*
X140225000Y-88075000D03*
X146300000Y-99278100D03*
X146300000Y-85700000D03*
X163450000Y-84675000D03*
X166750000Y-84025000D03*
X145425000Y-85475000D03*
X201950000Y-126800000D03*
X203850000Y-124175000D03*
X193350000Y-114155100D03*
X192750000Y-115969900D03*
X180400000Y-99750000D03*
X114425000Y-99425000D03*
X145175000Y-99875000D03*
X113300000Y-91625000D03*
X115074026Y-98935702D03*
X114150000Y-92575000D03*
X162371000Y-135650000D03*
X159875000Y-114525000D03*
X159725000Y-135200000D03*
X160525000Y-126875000D03*
X112875000Y-109525000D03*
X194100000Y-137225000D03*
X129250000Y-109550000D03*
X160450000Y-136550000D03*
X188250000Y-129350000D03*
X165000000Y-120850000D03*
X131875000Y-108900000D03*
X162425000Y-121050000D03*
X115500000Y-108825000D03*
X199106424Y-120838559D03*
X164825000Y-108825000D03*
X213444900Y-100750000D03*
D22*
X141450000Y-121200000D02*
X141545000Y-121105000D01*
X141545000Y-121105000D02*
X144425000Y-121105000D01*
D23*
X98544145Y-99575000D02*
X97975000Y-99575000D01*
X99780343Y-98338802D02*
X98544145Y-99575000D01*
X139938802Y-98338802D02*
X99780343Y-98338802D01*
X143150000Y-98100000D02*
X142700000Y-98550000D01*
X140150000Y-98550000D02*
X139938802Y-98338802D01*
X143325000Y-98100000D02*
X143150000Y-98100000D01*
X159700000Y-98100000D02*
X143325000Y-98100000D01*
X193075000Y-97221900D02*
X160928100Y-97221900D01*
X160150000Y-98000000D02*
X159800000Y-98000000D01*
X142700000Y-98550000D02*
X140150000Y-98550000D01*
X160928100Y-97221900D02*
X160150000Y-98000000D01*
X159800000Y-98000000D02*
X159700000Y-98100000D01*
X99475000Y-97800000D02*
X98975000Y-98300000D01*
X141925000Y-97800000D02*
X99475000Y-97800000D01*
X142575000Y-97475000D02*
X142250000Y-97475000D01*
X159600000Y-97375000D02*
X142675000Y-97375000D01*
X159625000Y-97350000D02*
X159600000Y-97375000D01*
X194300000Y-96625000D02*
X160350000Y-96625000D01*
X194975000Y-96625000D02*
X194300000Y-96625000D01*
X142250000Y-97475000D02*
X141925000Y-97800000D01*
X196675000Y-98325000D02*
X194975000Y-96625000D01*
X142675000Y-97375000D02*
X142575000Y-97475000D01*
X160350000Y-96625000D02*
X159625000Y-97350000D01*
D24*
X119325000Y-92700000D02*
X141650000Y-92700000D01*
X116375000Y-89750000D02*
X119325000Y-92700000D01*
X104375000Y-91175000D02*
X105669000Y-89881000D01*
X105669000Y-89881000D02*
X116244000Y-89881000D01*
X116244000Y-89881000D02*
X116375000Y-89750000D01*
X101175000Y-115675000D02*
X99160000Y-115675000D01*
X99160000Y-115675000D02*
X98925000Y-115440000D01*
D22*
X148658184Y-72300000D02*
X147775000Y-72300000D01*
X148683184Y-72325000D02*
X148658184Y-72300000D01*
X191900000Y-74700000D02*
X189525000Y-72325000D01*
X191900000Y-75825000D02*
X191900000Y-74700000D01*
X189525000Y-72325000D02*
X148683184Y-72325000D01*
X148492023Y-72800000D02*
X148422123Y-72869900D01*
X185925000Y-72800000D02*
X148492023Y-72800000D01*
X189050000Y-75925000D02*
X185925000Y-72800000D01*
X149225000Y-73400000D02*
X149200000Y-73425000D01*
X184175000Y-73400000D02*
X149225000Y-73400000D01*
X186600000Y-75825000D02*
X184175000Y-73400000D01*
X181088939Y-73780100D02*
X180869039Y-74000000D01*
X182230100Y-73780100D02*
X181088939Y-73780100D01*
X184100000Y-75650000D02*
X182230100Y-73780100D01*
X150300524Y-74000000D02*
X150175262Y-74125262D01*
X180869039Y-74000000D02*
X150300524Y-74000000D01*
X150875000Y-74575000D02*
X150750000Y-74700000D01*
X180350000Y-74575000D02*
X150875000Y-74575000D01*
X181325000Y-75550000D02*
X180350000Y-74575000D01*
D23*
X133275000Y-86250000D02*
X137850000Y-86250000D01*
X131850000Y-84825000D02*
X133275000Y-86250000D01*
D22*
X139450000Y-79000000D02*
X207000000Y-79000000D01*
X181875000Y-99125000D02*
X181575000Y-99425000D01*
X198600000Y-99125000D02*
X181875000Y-99125000D01*
X173798481Y-104375000D02*
X161100000Y-104375000D01*
X173890000Y-104283481D02*
X173798481Y-104375000D01*
X111875000Y-80625000D02*
X110775000Y-79525000D01*
X161994039Y-80625000D02*
X111875000Y-80625000D01*
X162844039Y-79775000D02*
X161994039Y-80625000D01*
X181194039Y-79775000D02*
X162844039Y-79775000D01*
X194725000Y-79850000D02*
X181830961Y-79850000D01*
X194875000Y-80000000D02*
X194725000Y-79850000D01*
X181711061Y-79730100D02*
X181238939Y-79730100D01*
X181830961Y-79850000D02*
X181711061Y-79730100D01*
X211500000Y-80000000D02*
X194875000Y-80000000D01*
X181238939Y-79730100D02*
X181194039Y-79775000D01*
X181275000Y-80500000D02*
X181475000Y-80300000D01*
X163650000Y-80500000D02*
X181275000Y-80500000D01*
X163525000Y-80625000D02*
X163650000Y-80500000D01*
X207000000Y-79000000D02*
X207075000Y-79075000D01*
D23*
X186700000Y-104300000D02*
X186575000Y-104175000D01*
X195025000Y-104300000D02*
X186700000Y-104300000D01*
X194025000Y-103525000D02*
X184200000Y-103525000D01*
X184200000Y-103525000D02*
X184125000Y-103450000D01*
X158500000Y-77100000D02*
X151600000Y-77100000D01*
D24*
X158625000Y-68925000D02*
X101025000Y-68925000D01*
X158625000Y-96625000D02*
X142925000Y-96625000D01*
D23*
X168475000Y-99875000D02*
X145175000Y-99875000D01*
X169150000Y-97850000D02*
X168625000Y-98375000D01*
X186000000Y-97850000D02*
X169150000Y-97850000D01*
X183975000Y-98555100D02*
X172019900Y-98555100D01*
X172019900Y-98555100D02*
X171150000Y-99425000D01*
D24*
X142925000Y-96625000D02*
X142400000Y-96100000D01*
D22*
X181000000Y-106200000D02*
X181450000Y-105750000D01*
X174075000Y-106200000D02*
X181000000Y-106200000D01*
X177925000Y-103075000D02*
X177950000Y-103050000D01*
X175650000Y-103075000D02*
X177925000Y-103075000D01*
X176050000Y-103713581D02*
X154944900Y-103713581D01*
X166155100Y-104944900D02*
X171325000Y-104944900D01*
X166025000Y-105075000D02*
X166155100Y-104944900D01*
X177750000Y-77750000D02*
X177650000Y-77850000D01*
X177750000Y-76960000D02*
X177750000Y-77750000D01*
X177750000Y-76960000D02*
X205665000Y-76960000D01*
X176300000Y-76500000D02*
X176380000Y-76580000D01*
D25*
X161921000Y-135200000D02*
X159725000Y-135200000D01*
X162371000Y-135650000D02*
X161921000Y-135200000D01*
D24*
X101025000Y-68925000D02*
X99600000Y-70350000D01*
D22*
X154780000Y-133805000D02*
X152425000Y-133805000D01*
X154950000Y-133975000D02*
X154780000Y-133805000D01*
X157525000Y-117025000D02*
X157150000Y-117400000D01*
X165850000Y-117025000D02*
X157525000Y-117025000D01*
X155035000Y-131265000D02*
X152425000Y-131265000D01*
X155050000Y-131250000D02*
X155035000Y-131265000D01*
X156875000Y-116050000D02*
X156400000Y-116525000D01*
X165471900Y-116050000D02*
X156875000Y-116050000D01*
X165596900Y-115925000D02*
X165471900Y-116050000D01*
X155025000Y-128725000D02*
X152425000Y-128725000D01*
X155050000Y-128750000D02*
X155025000Y-128725000D01*
X156025000Y-106500000D02*
X155600000Y-106925000D01*
X161050000Y-106500000D02*
X156025000Y-106500000D01*
X154860000Y-126185000D02*
X152425000Y-126185000D01*
X176111419Y-103713581D02*
X176050000Y-103713581D01*
X154950000Y-126275000D02*
X154860000Y-126185000D01*
X153630000Y-123645000D02*
X152425000Y-123645000D01*
X154450000Y-123325000D02*
X153950000Y-123325000D01*
X175600000Y-103125000D02*
X154375000Y-103125000D01*
X175650000Y-103075000D02*
X175600000Y-103125000D01*
X176430000Y-101825000D02*
X176430000Y-102295000D01*
X153950000Y-123325000D02*
X153630000Y-123645000D01*
X150025000Y-112300000D02*
X149875000Y-112450000D01*
X151400000Y-112300000D02*
X150025000Y-112300000D01*
X152325000Y-115925000D02*
X152425000Y-116025000D01*
X150900000Y-115925000D02*
X152325000Y-115925000D01*
X140070000Y-133805000D02*
X144425000Y-133805000D01*
X138950000Y-110525000D02*
X138525000Y-110950000D01*
X139900000Y-133975000D02*
X140070000Y-133805000D01*
X149925000Y-110525000D02*
X138950000Y-110525000D01*
X140190000Y-131265000D02*
X144425000Y-131265000D01*
X140150000Y-131225000D02*
X140190000Y-131265000D01*
X149050000Y-111275000D02*
X139550000Y-111275000D01*
X139550000Y-111275000D02*
X139375000Y-111450000D01*
X140340100Y-126185000D02*
X144425000Y-126185000D01*
X140305100Y-126150000D02*
X140340100Y-126185000D01*
X140305100Y-111875000D02*
X140155100Y-112025000D01*
X141325000Y-111875000D02*
X140305100Y-111875000D01*
X141000000Y-128900000D02*
X141175000Y-128725000D01*
X141175000Y-128725000D02*
X144425000Y-128725000D01*
X140975000Y-102350000D02*
X148500000Y-102350000D01*
X140725000Y-102600000D02*
X140975000Y-102350000D01*
X206185000Y-72135000D02*
X209850000Y-72135000D01*
X206175000Y-72125000D02*
X206185000Y-72135000D01*
X205665000Y-76960000D02*
X205825000Y-76800000D01*
X170835000Y-76875000D02*
X172020000Y-75690000D01*
X199675000Y-74675000D02*
X199250000Y-75100000D01*
X209850000Y-74675000D02*
X199675000Y-74675000D01*
D24*
X123575000Y-122025000D02*
X110375000Y-122025000D01*
X126700000Y-122025000D02*
X123575000Y-122025000D01*
D25*
X123675000Y-137075000D02*
X123625000Y-137025000D01*
X158275000Y-137075000D02*
X123675000Y-137075000D01*
X158475000Y-136875000D02*
X158275000Y-137075000D01*
X158475000Y-133625000D02*
X158475000Y-136875000D01*
X162425000Y-133625000D02*
X158475000Y-133625000D01*
X163150000Y-134350000D02*
X162425000Y-133625000D01*
X188915000Y-135055000D02*
X163855000Y-135055000D01*
X163855000Y-135055000D02*
X163150000Y-134350000D01*
D24*
X110375000Y-122025000D02*
X110325000Y-121975000D01*
D22*
X145750000Y-112850000D02*
X145655100Y-112944900D01*
X141530100Y-112944900D02*
X141450000Y-113025000D01*
X145655100Y-112944900D02*
X141530100Y-112944900D01*
X145250000Y-112025000D02*
X142500000Y-112025000D01*
X142500000Y-112025000D02*
X142150000Y-112375000D01*
X147300000Y-101750000D02*
X141825000Y-101750000D01*
X147750000Y-101300000D02*
X147300000Y-101750000D01*
X173150000Y-121800000D02*
X153120000Y-121800000D01*
X153120000Y-121800000D02*
X152425000Y-121105000D01*
X192850000Y-100000000D02*
X180650000Y-100000000D01*
X180650000Y-100000000D02*
X180400000Y-99750000D01*
D24*
X159175000Y-104750000D02*
X159850000Y-105425000D01*
X126650000Y-104750000D02*
X159175000Y-104750000D01*
D22*
X126625000Y-104775000D02*
X126650000Y-104750000D01*
D24*
X110200000Y-104775000D02*
X126625000Y-104775000D01*
D22*
X205850000Y-116675000D02*
X205940000Y-116585000D01*
X205225000Y-87150000D02*
X205625000Y-87550000D01*
X199225000Y-87150000D02*
X205225000Y-87150000D01*
X198200000Y-86650000D02*
X198725000Y-86650000D01*
X197125000Y-86475000D02*
X197300000Y-86650000D01*
X197000000Y-86475000D02*
X197125000Y-86475000D01*
X194025000Y-86475000D02*
X197000000Y-86475000D01*
X193875000Y-86325000D02*
X194025000Y-86475000D01*
X192075000Y-86250000D02*
X193575000Y-86250000D01*
X197300000Y-86650000D02*
X198200000Y-86650000D01*
X191600000Y-85775000D02*
X192075000Y-86250000D01*
X190587552Y-85775000D02*
X190900000Y-85775000D01*
X190281276Y-85468724D02*
X190587552Y-85775000D01*
X188450000Y-85302000D02*
X190114552Y-85302000D01*
X187877000Y-85302000D02*
X188450000Y-85302000D01*
X187575000Y-85000000D02*
X187877000Y-85302000D01*
X187400000Y-84825000D02*
X187575000Y-85000000D01*
X186250000Y-84825000D02*
X187400000Y-84825000D01*
X185825000Y-84825000D02*
X186250000Y-84825000D01*
X205940000Y-116585000D02*
X208560000Y-116585000D01*
X185375000Y-84425000D02*
X185400000Y-84400000D01*
X185275000Y-84425000D02*
X185375000Y-84425000D01*
X182775000Y-84025000D02*
X183175000Y-84425000D01*
X193575000Y-86250000D02*
X193650000Y-86325000D01*
X190900000Y-85775000D02*
X191600000Y-85775000D01*
X185400000Y-84400000D02*
X185825000Y-84825000D01*
X182375000Y-83625000D02*
X182775000Y-84025000D01*
X180900000Y-83625000D02*
X181475000Y-83625000D01*
X178830000Y-83325000D02*
X180600000Y-83325000D01*
X181475000Y-83625000D02*
X182375000Y-83625000D01*
X177530000Y-82025000D02*
X178830000Y-83325000D01*
X190114552Y-85302000D02*
X190281276Y-85468724D01*
X193650000Y-86325000D02*
X193875000Y-86325000D01*
X198725000Y-86650000D02*
X199225000Y-87150000D01*
X180600000Y-83325000D02*
X180900000Y-83625000D01*
X183175000Y-84425000D02*
X185275000Y-84425000D01*
X207690000Y-113175000D02*
X208560000Y-114045000D01*
X204600000Y-113175000D02*
X207690000Y-113175000D01*
X199150000Y-86575000D02*
X205150000Y-86575000D01*
X198750000Y-86175000D02*
X198900000Y-86325000D01*
X198200000Y-86175000D02*
X198750000Y-86175000D01*
X197400000Y-86175000D02*
X198200000Y-86175000D01*
X197375000Y-86150000D02*
X197400000Y-86175000D01*
X197150000Y-85925000D02*
X197375000Y-86150000D01*
X198900000Y-86325000D02*
X199150000Y-86575000D01*
X196875000Y-85925000D02*
X197150000Y-85925000D01*
X181320000Y-83275000D02*
X180070000Y-82025000D01*
X182875000Y-83275000D02*
X181320000Y-83275000D01*
X183475000Y-83875000D02*
X182875000Y-83275000D01*
X183625000Y-83875000D02*
X183475000Y-83875000D01*
X183650000Y-83900000D02*
X183625000Y-83875000D01*
X185625000Y-83900000D02*
X183650000Y-83900000D01*
X186100000Y-84375000D02*
X185625000Y-83900000D01*
X187725000Y-84375000D02*
X186100000Y-84375000D01*
X188325000Y-84975000D02*
X187725000Y-84375000D01*
X190150000Y-84975000D02*
X188325000Y-84975000D01*
X190200000Y-84925000D02*
X190150000Y-84975000D01*
X190600000Y-85325000D02*
X190200000Y-84925000D01*
X192025000Y-85325000D02*
X190600000Y-85325000D01*
X192600000Y-85900000D02*
X192025000Y-85325000D01*
X196875000Y-85925000D02*
X196850000Y-85900000D01*
X196850000Y-85900000D02*
X192600000Y-85900000D01*
X204655000Y-111505000D02*
X208560000Y-111505000D01*
X204625000Y-111475000D02*
X204655000Y-111505000D01*
X204175000Y-85825000D02*
X204300000Y-85950000D01*
X198900000Y-85825000D02*
X204175000Y-85825000D01*
X198700000Y-85625000D02*
X198900000Y-85825000D01*
X198250000Y-85625000D02*
X198700000Y-85625000D01*
X197400000Y-85625000D02*
X198250000Y-85625000D01*
X196925000Y-85150000D02*
X197100000Y-85325000D01*
X193525000Y-85150000D02*
X196925000Y-85150000D01*
X192700000Y-85150000D02*
X193525000Y-85150000D01*
X192450000Y-84900000D02*
X192700000Y-85150000D01*
X192125000Y-84575000D02*
X192450000Y-84900000D01*
X191150000Y-84575000D02*
X192125000Y-84575000D01*
X190700000Y-84575000D02*
X191150000Y-84575000D01*
X190450000Y-84325000D02*
X190700000Y-84575000D01*
X190350000Y-84225000D02*
X190450000Y-84325000D01*
X197100000Y-85325000D02*
X197400000Y-85625000D01*
X188450000Y-84225000D02*
X188725000Y-84225000D01*
X188725000Y-84225000D02*
X190350000Y-84225000D01*
X187925000Y-83750000D02*
X187975000Y-83750000D01*
X187975000Y-83750000D02*
X188450000Y-84225000D01*
X186175000Y-83750000D02*
X187925000Y-83750000D01*
X186075000Y-83650000D02*
X186175000Y-83750000D01*
X185675000Y-83250000D02*
X186075000Y-83650000D01*
X185275000Y-83250000D02*
X185675000Y-83250000D01*
X183835000Y-83250000D02*
X185275000Y-83250000D01*
X182610000Y-82025000D02*
X183835000Y-83250000D01*
X203935000Y-108965000D02*
X208560000Y-108965000D01*
X198750000Y-85200000D02*
X203775000Y-85200000D01*
X198575000Y-85025000D02*
X198750000Y-85200000D01*
X197775000Y-85025000D02*
X198575000Y-85025000D01*
X203900000Y-109000000D02*
X203935000Y-108965000D01*
X197600000Y-84850000D02*
X197775000Y-85025000D01*
X197375000Y-84625000D02*
X197600000Y-84850000D01*
X194550000Y-84625000D02*
X197375000Y-84625000D01*
X192975000Y-84625000D02*
X194550000Y-84625000D01*
X192700000Y-84350000D02*
X192975000Y-84625000D01*
X192477000Y-84127000D02*
X192700000Y-84350000D01*
X188175000Y-83250000D02*
X188475000Y-83550000D01*
X188475000Y-83550000D02*
X188625000Y-83700000D01*
X190550000Y-83700000D02*
X190977000Y-84127000D01*
X187000000Y-83250000D02*
X188175000Y-83250000D01*
X190977000Y-84127000D02*
X191125000Y-84127000D01*
X186375000Y-83250000D02*
X187000000Y-83250000D01*
X188625000Y-83700000D02*
X190550000Y-83700000D01*
X185150000Y-82025000D02*
X186375000Y-83250000D01*
X191125000Y-84127000D02*
X192477000Y-84127000D01*
X203950000Y-106425000D02*
X208560000Y-106425000D01*
X202950000Y-84525000D02*
X203000000Y-84575000D01*
X198100000Y-84525000D02*
X202950000Y-84525000D01*
X197725000Y-84150000D02*
X198100000Y-84525000D01*
X194000000Y-84150000D02*
X197725000Y-84150000D01*
X193200000Y-84150000D02*
X194000000Y-84150000D01*
X192850000Y-83800000D02*
X193200000Y-84150000D01*
X203350000Y-105825000D02*
X203950000Y-106425000D01*
X191150000Y-83800000D02*
X192850000Y-83800000D01*
X190625000Y-83275000D02*
X191150000Y-83800000D01*
X189900000Y-83275000D02*
X190625000Y-83275000D01*
X188940000Y-83275000D02*
X189900000Y-83275000D01*
X187690000Y-82025000D02*
X188940000Y-83275000D01*
X205830100Y-98650000D02*
X206330100Y-99150000D01*
X204075000Y-98650000D02*
X205830100Y-98650000D01*
X203567873Y-98142873D02*
X204075000Y-98650000D01*
X198600000Y-98142873D02*
X203567873Y-98142873D01*
X193494900Y-83669900D02*
X198321364Y-83669900D01*
X191580000Y-83375000D02*
X193200000Y-83375000D01*
X198321364Y-83669900D02*
X198326464Y-83675000D01*
X193200000Y-83375000D02*
X193475000Y-83650000D01*
X190230000Y-82025000D02*
X191580000Y-83375000D01*
X193475000Y-83650000D02*
X193494900Y-83669900D01*
X206800000Y-98150000D02*
X206900000Y-98250000D01*
X203925000Y-97700000D02*
X204375000Y-98150000D01*
X204375000Y-98150000D02*
X205000000Y-98150000D01*
X203797973Y-97572973D02*
X203925000Y-97700000D01*
X197756564Y-97572973D02*
X203797973Y-97572973D01*
X205000000Y-98150000D02*
X206800000Y-98150000D01*
X193845000Y-83100000D02*
X197569900Y-83100000D01*
X192770000Y-82025000D02*
X193845000Y-83100000D01*
X208560000Y-97560000D02*
X208560000Y-98805000D01*
X205000000Y-97550000D02*
X208550000Y-97550000D01*
X204825000Y-97600000D02*
X204950000Y-97600000D01*
X208550000Y-97550000D02*
X208560000Y-97560000D01*
X204200000Y-96975000D02*
X204825000Y-97600000D01*
X197600000Y-97025000D02*
X197650000Y-96975000D01*
X204950000Y-97600000D02*
X205000000Y-97550000D01*
X197650000Y-96975000D02*
X204200000Y-96975000D01*
X197075000Y-97025000D02*
X197600000Y-97025000D01*
X196800000Y-82025000D02*
X196900000Y-82125000D01*
X195310000Y-82025000D02*
X196800000Y-82025000D01*
X132625000Y-94200000D02*
X177325000Y-94200000D01*
X177325000Y-94200000D02*
X178125000Y-93400000D01*
D23*
X114150000Y-92575000D02*
X113995000Y-92730000D01*
X113995000Y-92730000D02*
X111075000Y-92730000D01*
X112575000Y-90900000D02*
X108855000Y-90900000D01*
X113300000Y-91625000D02*
X112575000Y-90900000D01*
X108855000Y-90900000D02*
X107025000Y-92730000D01*
X128450000Y-99278100D02*
X115416424Y-99278100D01*
X144350000Y-99278100D02*
X128450000Y-99278100D01*
D22*
X120144900Y-71630100D02*
X128205100Y-71630100D01*
X120075000Y-71700000D02*
X120144900Y-71630100D01*
X119775000Y-71700000D02*
X120075000Y-71700000D01*
X128205100Y-71630100D02*
X128475000Y-71900000D01*
X115972000Y-71700000D02*
X119775000Y-71700000D01*
X112926000Y-74746000D02*
X115972000Y-71700000D01*
D23*
X145175000Y-99875000D02*
X127425000Y-99875000D01*
X127425000Y-99875000D02*
X114875000Y-99875000D01*
D22*
X118012000Y-72200000D02*
X127400000Y-72200000D01*
X115466000Y-74746000D02*
X118012000Y-72200000D01*
X215225000Y-116525000D02*
X215075000Y-116675000D01*
X215225000Y-98075000D02*
X215225000Y-116525000D01*
X212150000Y-97050000D02*
X212875000Y-97775000D01*
X214925000Y-97775000D02*
X215225000Y-98075000D01*
X212875000Y-97775000D02*
X214925000Y-97775000D01*
X204050000Y-96250000D02*
X204850000Y-97050000D01*
X195500000Y-96250000D02*
X204050000Y-96250000D01*
X204850000Y-97050000D02*
X212150000Y-97050000D01*
X195400000Y-96150000D02*
X195500000Y-96250000D01*
X215825000Y-113950000D02*
X215800000Y-113975000D01*
X215825000Y-97225000D02*
X215825000Y-113950000D01*
X213150000Y-97225000D02*
X215825000Y-97225000D01*
X212325000Y-96400000D02*
X213150000Y-97225000D01*
X212300000Y-96400000D02*
X212325000Y-96400000D01*
X205725000Y-96400000D02*
X212300000Y-96400000D01*
X204475000Y-95475000D02*
X205400000Y-96400000D01*
X204450000Y-95500000D02*
X204475000Y-95475000D01*
X193050000Y-95500000D02*
X204450000Y-95500000D01*
X205400000Y-96400000D02*
X205725000Y-96400000D01*
X215275000Y-96575000D02*
X215325000Y-96625000D01*
X212525000Y-95900000D02*
X213200000Y-96575000D01*
X207300000Y-95900000D02*
X212525000Y-95900000D01*
X204769900Y-94769900D02*
X205375000Y-95375000D01*
X205375000Y-95375000D02*
X205900000Y-95900000D01*
X205900000Y-95900000D02*
X207300000Y-95900000D01*
X190525000Y-94769900D02*
X204769900Y-94769900D01*
X213200000Y-96575000D02*
X215275000Y-96575000D01*
X213550000Y-96000000D02*
X214725000Y-96000000D01*
X213200000Y-95650000D02*
X213550000Y-96000000D01*
X213000000Y-95450000D02*
X213200000Y-95650000D01*
X206700000Y-95450000D02*
X213000000Y-95450000D01*
X206525000Y-95450000D02*
X206700000Y-95450000D01*
X188050000Y-94200000D02*
X205275000Y-94200000D01*
X205275000Y-94200000D02*
X205450000Y-94375000D01*
X205450000Y-94375000D02*
X206525000Y-95450000D01*
X192950000Y-93625000D02*
X185600000Y-93625000D01*
X192975000Y-93650000D02*
X192950000Y-93625000D01*
X213789800Y-94939800D02*
X208114800Y-94939800D01*
X208100000Y-94925000D02*
X206900000Y-94925000D01*
X214125000Y-95275000D02*
X213789800Y-94939800D01*
X206900000Y-94925000D02*
X205625000Y-93650000D01*
X208114800Y-94939800D02*
X208100000Y-94925000D01*
X205625000Y-93650000D02*
X192975000Y-93650000D01*
X206150000Y-93050000D02*
X178475000Y-93050000D01*
X178475000Y-93050000D02*
X178125000Y-93400000D01*
X210980100Y-94275000D02*
X207375000Y-94275000D01*
X207375000Y-94275000D02*
X206150000Y-93050000D01*
X211075000Y-94369900D02*
X210980100Y-94275000D01*
X212849900Y-101345000D02*
X211100000Y-101345000D01*
X213444900Y-100750000D02*
X212849900Y-101345000D01*
X213000000Y-93800000D02*
X213525000Y-94325000D01*
X207950000Y-93800000D02*
X213000000Y-93800000D01*
X206600000Y-92550000D02*
X207850000Y-93800000D01*
X180375000Y-92550000D02*
X206600000Y-92550000D01*
X207850000Y-93800000D02*
X207950000Y-93800000D01*
X180050000Y-92225000D02*
X180375000Y-92550000D01*
X212675000Y-92925000D02*
X212875000Y-93125000D01*
X208100000Y-92925000D02*
X212675000Y-92925000D01*
X183815744Y-91665744D02*
X207174563Y-91665744D01*
X183100000Y-90950000D02*
X183815744Y-91665744D01*
X169775000Y-92000000D02*
X170000000Y-91775000D01*
X154350000Y-92000000D02*
X169775000Y-92000000D01*
X207900000Y-85650000D02*
X208070000Y-85820000D01*
X208070000Y-85820000D02*
X209850000Y-85820000D01*
X136915000Y-88075000D02*
X136675000Y-88315000D01*
X140225000Y-88075000D02*
X136915000Y-88075000D01*
D23*
X146300000Y-99278100D02*
X144350000Y-99278100D01*
X171003100Y-99278100D02*
X146300000Y-99278100D01*
D22*
X146300000Y-85375000D02*
X146300000Y-85700000D01*
X146575000Y-85100000D02*
X146300000Y-85375000D01*
X163450000Y-84675000D02*
X147000000Y-84675000D01*
X147000000Y-84675000D02*
X146575000Y-85100000D01*
X146850000Y-84050000D02*
X145425000Y-85475000D01*
X166725000Y-84050000D02*
X146850000Y-84050000D01*
X166750000Y-84025000D02*
X166725000Y-84050000D01*
D26*
X110061000Y-128830000D02*
X115141000Y-128830000D01*
X110061000Y-133910000D02*
X110061000Y-128830000D01*
X115141000Y-133910000D02*
X110061000Y-133910000D01*
X115141000Y-133910000D02*
X115141000Y-128830000D01*
X115273000Y-128698000D02*
X115141000Y-128830000D01*
X115273000Y-124461000D02*
X115273000Y-128698000D01*
X126636000Y-128955000D02*
X131716000Y-128955000D01*
X126636000Y-134035000D02*
X126636000Y-128955000D01*
X131716000Y-134035000D02*
X126636000Y-134035000D01*
X131716000Y-134035000D02*
X131716000Y-128955000D01*
X131750000Y-128921000D02*
X131716000Y-128955000D01*
X131750000Y-124450000D02*
X131750000Y-128921000D01*
X196870000Y-112305000D02*
X201950000Y-112305000D01*
X196870000Y-107225000D02*
X196870000Y-112305000D01*
X201950000Y-107225000D02*
X196870000Y-107225000D01*
X201950000Y-112305000D02*
X201950000Y-107225000D01*
X201942000Y-126808000D02*
X201950000Y-126800000D01*
X180151000Y-126808000D02*
X201942000Y-126808000D01*
X203850000Y-124175000D02*
X203757000Y-124268000D01*
X203757000Y-124268000D02*
X180151000Y-124268000D01*
X186070000Y-112530000D02*
X186070000Y-107450000D01*
X191150000Y-112530000D02*
X186070000Y-112530000D01*
X191150000Y-107450000D02*
X191150000Y-112530000D01*
X186070000Y-107450000D02*
X191150000Y-107450000D01*
X184604000Y-108916000D02*
X186070000Y-107450000D01*
X180390000Y-108916000D02*
X184604000Y-108916000D01*
D22*
X192750000Y-115969900D02*
X193350000Y-115369900D01*
X193350000Y-115369900D02*
X193350000Y-114155100D01*
D23*
X114875000Y-99875000D02*
X114425000Y-99425000D01*
X171150000Y-99425000D02*
X171003100Y-99278100D01*
X115416424Y-99278100D02*
X115074026Y-98935702D01*
D25*
X159875000Y-114525000D02*
X160275000Y-114525000D01*
X160275000Y-114525000D02*
X160804000Y-113996000D01*
X160804000Y-113996000D02*
X162610000Y-113996000D01*
D23*
X129250000Y-109550000D02*
X112900000Y-109550000D01*
X194100000Y-137225000D02*
X161125000Y-137225000D01*
X161125000Y-137225000D02*
X160450000Y-136550000D01*
X160525000Y-126875000D02*
X162304000Y-126875000D01*
X129303100Y-109496900D02*
X129250000Y-109550000D01*
X112900000Y-109550000D02*
X112875000Y-109525000D01*
X161078100Y-109496900D02*
X129303100Y-109496900D01*
X161100000Y-109475000D02*
X161078100Y-109496900D01*
X162610000Y-111456000D02*
X161100000Y-109946000D01*
X162304000Y-126875000D02*
X162371000Y-126808000D01*
X161100000Y-109946000D02*
X161100000Y-109475000D01*
X187950000Y-129350000D02*
X187948000Y-129348000D01*
D25*
X187948000Y-129348000D02*
X180151000Y-129348000D01*
D23*
X188250000Y-129350000D02*
X187950000Y-129350000D01*
X115575000Y-108900000D02*
X115500000Y-108825000D01*
X165000000Y-120850000D02*
X164953967Y-120896033D01*
X162701000Y-108825000D02*
X162610000Y-108916000D01*
X131875000Y-108900000D02*
X115575000Y-108900000D01*
X131891000Y-108916000D02*
X131875000Y-108900000D01*
X165046033Y-120896033D02*
X165000000Y-120850000D01*
X164953967Y-120896033D02*
X162578967Y-120896033D01*
X199048950Y-120896033D02*
X165046033Y-120896033D01*
X199106424Y-120838559D02*
X199048950Y-120896033D01*
X162578967Y-120896033D02*
X162425000Y-121050000D01*
X164825000Y-108825000D02*
X162701000Y-108825000D01*
X162610000Y-108916000D02*
X131891000Y-108916000D01*
D22*
X176300000Y-75690000D02*
X176300000Y-76500000D01*
X172020000Y-75690000D02*
X176300000Y-75690000D01*
M02*
